M48
METRIC,TZ
T01C0.3810
T02C1.7780
T03C2.0000
T04C0.9650
T05C0.8500
T06C1.3000
%
T01
X-37754Y-33746
X-40754Y-36746
X-35254Y-36246
X-34254Y-35246
X-39754Y-35746
X-34614Y-32386
X-38754Y-34746
X+33746Y-37754
X+36746Y-40754
X+36246Y-35254
X+35246Y-34254
X+35746Y-39754
X+32386Y-34614
X+34746Y-38754
X+37754Y+33746
X+40754Y+36746
X+35254Y+36246
X+34254Y+35246
X+39754Y+35746
X+34614Y+32386
X+38754Y+34746
X-33746Y+37754
X-36746Y+40754
X-36246Y+35254
X-35246Y+34254
X-35746Y+39754
X-32386Y+34614
X-34746Y+38754
T02
X-46828Y-46828
X-41172Y-41172
X+46828Y-46828
X+41172Y-41172
X+46828Y+46828
X+41172Y+41172
X-46828Y+46828
X-41172Y+41172
T03
X-7500Y+27500
X-7500Y+37500
X+7500Y+37500
X+7500Y+27500
X-7500Y+47500
X+7500Y+47500
T04
X+31102Y-32898
X+32898Y-31102
X+32898Y+31102
X+31102Y+32898
X-32898Y-31102
X-31102Y-32898
X-31102Y+32898
X-32898Y+31102
X+7000Y-29730
X+7000Y-32270
X-7000Y-29730
X-7000Y-32270
X+6030Y-10520
X+6030Y-13060
X+3490Y-10520
X+3490Y-13060
X+950Y-10520
X+950Y-13060
X-1590Y-10520
X-1590Y-13060
T05
X-2500Y-30127
X+2500Y-30127
T06
X-3500Y-32827
X+3500Y-32827
M30
