G04 PROTEUS RS274X GERBER FILE*
%FSLAX45Y45*%
%MOMM*%
G01*
%ADD10C,0.508000*%
%ADD13C,0.762000*%
%ADD14C,3.048000*%
%ADD30R,1.524000X0.889000*%
%ADD31R,0.889000X1.524000*%
%ADD71C,2.200000*%
%AMPPAD012*
4,1,4,
-1.077630,0.000000,
0.000000,1.077630,
1.077630,0.000000,
0.000000,-1.077630,
-1.077630,0.000000,
0*%
%ADD20PPAD012*%
%ADD21C,1.524000*%
%ADD23C,1.450000*%
%ADD24C,1.900000*%
%ADD27R,1.524000X1.524000*%
%ADD73C,0.203200*%
D10*
X-4400000Y-4240000D02*
X-4400000Y-4150000D01*
X-4367157Y-4117157D01*
X-4117157Y-4117157D01*
X-4400000Y-4560000D02*
X-4400000Y-4650000D01*
X-4432843Y-4682843D01*
X-4682843Y-4682843D01*
X+4240000Y-4400000D02*
X+4150000Y-4400000D01*
X+4117157Y-4367157D01*
X+4117157Y-4117157D01*
X+4560000Y-4400000D02*
X+4650000Y-4400000D01*
X+4682843Y-4432843D01*
X+4682843Y-4682843D01*
X+4400000Y+4240000D02*
X+4400000Y+4150000D01*
X+4367157Y+4117157D01*
X+4117157Y+4117157D01*
X+4400000Y+4560000D02*
X+4400000Y+4650000D01*
X+4432843Y+4682843D01*
X+4682843Y+4682843D01*
X-4240000Y+4400000D02*
X-4150000Y+4400000D01*
X-4117157Y+4367157D01*
X-4117157Y+4117157D01*
X-4560000Y+4400000D02*
X-4650000Y+4400000D01*
X-4682843Y+4432843D01*
X-4682843Y+4682843D01*
D13*
X-3775434Y-3374566D03*
X-4075434Y-3674566D03*
X-3525434Y-3624566D03*
X-3425434Y-3524565D03*
X-3975434Y-3574566D03*
X-3461355Y-3238645D03*
X-3875434Y-3474566D03*
X+3374566Y-3775434D03*
X+3674566Y-4075434D03*
X+3624566Y-3525434D03*
X+3524565Y-3425434D03*
X+3574566Y-3975434D03*
X+3238645Y-3461355D03*
X+3474566Y-3875434D03*
X+3775434Y+3374566D03*
X+4075434Y+3674566D03*
X+3525434Y+3624566D03*
X+3425434Y+3524565D03*
X+3975434Y+3574566D03*
X+3461355Y+3238645D03*
X+3875434Y+3474566D03*
X-3374566Y+3775434D03*
X-3674566Y+4075434D03*
X-3624566Y+3525434D03*
X-3524565Y+3425434D03*
X-3574566Y+3975434D03*
X-3238645Y+3461355D03*
X-3474566Y+3875434D03*
D14*
X-4682843Y-4682843D03*
X-4117157Y-4117157D03*
D30*
X-4400000Y-4240000D03*
X-4400000Y-4560000D03*
D14*
X+4682843Y-4682843D03*
X+4117157Y-4117157D03*
D31*
X+4240000Y-4400000D03*
X+4560000Y-4400000D03*
D14*
X+4682843Y+4682843D03*
X+4117157Y+4117157D03*
D30*
X+4400000Y+4240000D03*
X+4400000Y+4560000D03*
D14*
X-4682843Y+4682843D03*
X-4117157Y+4117157D03*
D31*
X-4240000Y+4400000D03*
X-4560000Y+4400000D03*
D71*
X-750000Y+2750000D03*
X-750000Y+3750000D03*
X+750000Y+3750000D03*
X+750000Y+2750000D03*
X-750000Y+4750000D03*
X+750000Y+4750000D03*
D20*
X+3110197Y-3289803D03*
D21*
X+3289802Y-3110197D03*
D20*
X+3289802Y+3110197D03*
D21*
X+3110197Y+3289802D03*
D20*
X-3289802Y-3110198D03*
D21*
X-3110197Y-3289803D03*
D20*
X-3110197Y+3289803D03*
D21*
X-3289803Y+3110197D03*
D23*
X-250000Y-3012700D03*
X+250000Y-3012700D03*
D24*
X-350000Y-3282700D03*
X+350000Y-3282700D03*
D27*
X+700000Y-2973000D03*
D21*
X+700000Y-3227000D03*
D27*
X-700000Y-2973000D03*
D21*
X-700000Y-3227000D03*
D27*
X+603000Y-1052000D03*
D21*
X+603000Y-1306000D03*
X+349000Y-1052000D03*
X+349000Y-1306000D03*
X+95000Y-1052000D03*
X+95000Y-1306000D03*
X-159000Y-1052000D03*
X-159000Y-1306000D03*
D73*
X-4000000Y-5000000D02*
X-4500000Y-5000000D01*
X-4551964Y-4997475D01*
X-4602234Y-4990051D01*
X-4650581Y-4977959D01*
X-4696777Y-4961426D01*
X-4740593Y-4940681D01*
X-4781799Y-4915955D01*
X-4820168Y-4887474D01*
X-4855469Y-4855469D01*
X-4887474Y-4820168D01*
X-4915955Y-4781799D01*
X-4940682Y-4740593D01*
X-4961426Y-4696777D01*
X-4977959Y-4650581D01*
X-4990051Y-4602234D01*
X-4997475Y-4551964D01*
X-5000000Y-4500000D01*
X-5000000Y-4000000D01*
X-1750000Y-250000D01*
X-1750000Y+250000D01*
X-5000000Y+4000000D01*
X-5000000Y+4500000D01*
X-4997475Y+4551964D01*
X-4990051Y+4602234D01*
X-4977959Y+4650581D01*
X-4961426Y+4696777D01*
X-4940682Y+4740593D01*
X-4915955Y+4781799D01*
X-4887474Y+4820168D01*
X-4855469Y+4855469D01*
X-4820168Y+4887474D01*
X-4781799Y+4915955D01*
X-4740593Y+4940681D01*
X-4696777Y+4961426D01*
X-4650581Y+4977959D01*
X-4602234Y+4990051D01*
X-4551964Y+4997475D01*
X-4500000Y+5000000D01*
X-4000000Y+5000000D01*
X-1750000Y+3500000D01*
X-1000000Y+3500000D01*
X-1000000Y+4750000D01*
X-750000Y+5000000D01*
X+750000Y+5000000D01*
X+1000000Y+4750000D01*
X+1000000Y+3500000D01*
X+1750000Y+3500000D01*
X+4000000Y+5000000D01*
X+4500000Y+5000000D01*
X+4551964Y+4997475D01*
X+4602234Y+4990051D01*
X+4650581Y+4977959D01*
X+4696777Y+4961426D01*
X+4740593Y+4940681D01*
X+4781799Y+4915955D01*
X+4820168Y+4887474D01*
X+4855469Y+4855469D01*
X+4887474Y+4820168D01*
X+4915955Y+4781799D01*
X+4940682Y+4740593D01*
X+4961426Y+4696777D01*
X+4977959Y+4650581D01*
X+4990051Y+4602234D01*
X+4997475Y+4551964D01*
X+5000000Y+4500000D01*
X+5000000Y+4000000D01*
X+1750000Y+250000D01*
X+1750000Y-250000D01*
X+5000000Y-4000000D01*
X+5000000Y-4500000D01*
X+4997475Y-4551964D01*
X+4990051Y-4602234D01*
X+4977959Y-4650581D01*
X+4961426Y-4696777D01*
X+4940682Y-4740593D01*
X+4915955Y-4781799D01*
X+4887474Y-4820168D01*
X+4855469Y-4855469D01*
X+4820168Y-4887474D01*
X+4781799Y-4915955D01*
X+4740593Y-4940681D01*
X+4696777Y-4961426D01*
X+4650581Y-4977959D01*
X+4602234Y-4990051D01*
X+4551964Y-4997475D01*
X+4500000Y-5000000D01*
X+4000000Y-5000000D01*
X+1750000Y-3500000D01*
X-1750000Y-3500000D01*
X-4000000Y-5000000D01*
X-3250000Y-2750000D02*
X-2500000Y-3500000D01*
X-1750000Y-3000000D01*
X-1000000Y-3000000D01*
X-1000000Y-750000D01*
X-1500000Y-750000D01*
X-3250000Y-2750000D01*
X+3250000Y-2750000D02*
X+2500000Y-3500000D01*
X+1750000Y-3000000D01*
X+1000000Y-3000000D01*
X+1000000Y-750000D01*
X+1500000Y-750000D01*
X+3250000Y-2750000D01*
X+3250000Y+2750000D02*
X+2500000Y+3500000D01*
X+1750000Y+3000000D01*
X+1000000Y+3000000D01*
X+1000000Y+750000D01*
X+1500000Y+750000D01*
X+3250000Y+2750000D01*
X-3250000Y+2750000D02*
X-2500000Y+3500000D01*
X-1750000Y+3000000D01*
X-1000000Y+3000000D01*
X-1000000Y+750000D01*
X-1500000Y+750000D01*
X-3250000Y+2750000D01*
M02*
