G04 PROTEUS RS274X GERBER FILE*
%FSLAX45Y45*%
%MOMM*%
G01*
%ADD10C,0.508000*%
%ADD11C,0.762000*%
%ADD12C,0.254000*%
%ADD13C,0.762000*%
%ADD14C,3.048000*%
%AMPPAD005*
4,1,4,
0.134700,0.673520,
0.673520,0.134700,
-0.134700,-0.673520,
-0.673520,-0.134700,
0.134700,0.673520,
0*%
%ADD15PPAD005*%
%AMPPAD006*
4,1,4,
0.583360,0.123740,
-0.123740,-0.583360,
-0.583360,-0.123740,
0.123740,0.583360,
0.583360,0.123740,
0*%
%ADD16PPAD006*%
%AMPPAD007*
4,1,4,
0.179610,0.898030,
0.898030,0.179610,
-0.179610,-0.898030,
-0.898030,-0.179610,
0.179610,0.898030,
0*%
%ADD17PPAD007*%
%AMPPAD008*
4,1,4,
-0.673520,0.134700,
-0.134700,0.673520,
0.673520,-0.134700,
0.134700,-0.673520,
-0.673520,0.134700,
0*%
%ADD18PPAD008*%
%AMPPAD009*
4,1,4,
-0.123740,0.583360,
0.583360,-0.123740,
0.123740,-0.583360,
-0.583360,0.123740,
-0.123740,0.583360,
0*%
%ADD19PPAD009*%
%AMPPAD010*
4,1,4,
-0.898030,0.179610,
-0.179610,0.898030,
0.898030,-0.179610,
0.179610,-0.898030,
-0.898030,0.179610,
0*%
%ADD70PPAD010*%
%ADD71C,2.200000*%
%AMPPAD012*
4,1,4,
-1.077630,0.000000,
0.000000,1.077630,
1.077630,0.000000,
0.000000,-1.077630,
-1.077630,0.000000,
0*%
%ADD20PPAD012*%
%ADD21C,1.524000*%
%ADD22R,0.381000X1.778000*%
%ADD23C,1.450000*%
%ADD24C,1.900000*%
%ADD25R,1.500000X1.900000*%
%ADD26R,1.524000X1.016000*%
%ADD27R,1.524000X1.524000*%
%ADD28R,1.143000X0.762000*%
%ADD29R,1.524000X2.540000*%
%ADD72R,0.508000X0.635000*%
%ADD73C,0.203200*%
D10*
X-3490901Y-3875251D02*
X-3443315Y-3827665D01*
X-3432678Y-3827665D01*
X-3426797Y-3827665D01*
X-3374566Y-3775434D01*
X-3274566Y-3675434D02*
X-3374566Y-3775434D01*
X-3425434Y-3524565D02*
X-3525434Y-3624565D01*
X-3525434Y-3624566D01*
X-3824566Y-3725434D02*
X-3700000Y-3850000D01*
X-3650000Y-3850000D01*
X-3600000Y-3850000D01*
X-3558076Y-3808076D01*
X-3975434Y-3574566D02*
X-4075434Y-3674566D01*
X-3425434Y-3524565D02*
X-3400000Y-3499131D01*
X-3400000Y-3350000D01*
X-3400000Y-3300000D01*
X-3461355Y-3238645D01*
X-3875434Y-3474566D02*
X-3975434Y-3574566D01*
X-3741924Y-3991924D02*
X-3850000Y-4100000D01*
X-3850000Y-4200000D01*
X-4300000Y-4650000D01*
X-4500000Y-4650000D01*
X-4650000Y-4650000D01*
X-4682843Y-4682843D01*
X-3674749Y-4059099D02*
X-3750000Y-4134350D01*
X-3750000Y-4250000D01*
X-4250000Y-4750000D01*
X-4615686Y-4750000D01*
X-4682843Y-4682843D01*
X-3624566Y-3525434D02*
X-3700000Y-3450000D01*
X-3650000Y-3400000D01*
X-3600000Y-3400000D01*
X-3550000Y-3400000D01*
X-3524566Y-3425434D01*
X-3724566Y-3625434D02*
X-3800000Y-3550000D01*
X-4117157Y-4117157D02*
X-4117157Y-3867157D01*
X-4050000Y-3800000D01*
X-3800000Y-3550000D01*
X-3700000Y-3450000D01*
X-3238645Y-3461355D02*
X-3300000Y-3522710D01*
X-3300000Y-3522711D01*
X-3558076Y-3808076D02*
X-3300000Y-3550000D01*
X-3300000Y-3522710D01*
X-3300000Y-3522711D01*
X-3238645Y-3461355D01*
X-3238645Y-3461356D01*
X-3525434Y-3624566D02*
X-3425434Y-3524565D01*
X-3425434Y-3524566D01*
X-3775434Y-3374566D02*
X-3875434Y-3474566D01*
X-3809099Y-3924749D02*
X-3825251Y-3924749D01*
X-3825252Y-3924748D01*
X-3809099Y-3924748D02*
X-3809099Y-3924749D01*
X-3825251Y-3924749D01*
X-3825252Y-3924748D01*
X-3924566Y-3825434D01*
X+3875251Y-3490901D02*
X+3827665Y-3443315D01*
X+3827665Y-3432678D01*
X+3827665Y-3426797D01*
X+3775434Y-3374566D01*
X+3675434Y-3274566D02*
X+3775434Y-3374566D01*
X+3524565Y-3425434D02*
X+3624565Y-3525434D01*
X+3624566Y-3525434D01*
X+3725434Y-3824566D02*
X+3850000Y-3700000D01*
X+3850000Y-3650000D01*
X+3850000Y-3600000D01*
X+3808076Y-3558076D01*
X+3574566Y-3975434D02*
X+3674566Y-4075434D01*
X+3524565Y-3425434D02*
X+3499131Y-3400000D01*
X+3350000Y-3400000D01*
X+3300000Y-3400000D01*
X+3238645Y-3461355D01*
X+3474566Y-3875434D02*
X+3574566Y-3975434D01*
X+3991924Y-3741924D02*
X+4100000Y-3850000D01*
X+4200000Y-3850000D01*
X+4650000Y-4300000D01*
X+4650000Y-4500000D01*
X+4650000Y-4650000D01*
X+4682843Y-4682843D01*
X+4059099Y-3674749D02*
X+4134350Y-3750000D01*
X+4250000Y-3750000D01*
X+4750000Y-4250000D01*
X+4750000Y-4615686D01*
X+4682843Y-4682843D01*
X+3525434Y-3624566D02*
X+3450000Y-3700000D01*
X+3400000Y-3650000D01*
X+3400000Y-3600000D01*
X+3400000Y-3550000D01*
X+3425434Y-3524566D01*
X+3625434Y-3724566D02*
X+3550000Y-3800000D01*
X+4117157Y-4117157D02*
X+3867157Y-4117157D01*
X+3800000Y-4050000D01*
X+3550000Y-3800000D01*
X+3450000Y-3700000D01*
X+3461355Y-3238645D02*
X+3522710Y-3300000D01*
X+3522711Y-3300000D01*
X+3808076Y-3558076D02*
X+3550000Y-3300000D01*
X+3522710Y-3300000D01*
X+3522711Y-3300000D01*
X+3461355Y-3238645D01*
X+3461356Y-3238645D01*
X+3624566Y-3525434D02*
X+3524565Y-3425434D01*
X+3524566Y-3425434D01*
X+3374566Y-3775434D02*
X+3474566Y-3875434D01*
X+3924749Y-3809099D02*
X+3924749Y-3825251D01*
X+3924748Y-3825252D01*
X+3924748Y-3809099D02*
X+3924749Y-3809099D01*
X+3924749Y-3825251D01*
X+3924748Y-3825252D01*
X+3825434Y-3924566D01*
X+3490901Y+3875251D02*
X+3443315Y+3827665D01*
X+3432678Y+3827665D01*
X+3426797Y+3827665D01*
X+3374566Y+3775434D01*
X+3274566Y+3675434D02*
X+3374566Y+3775434D01*
X+3425434Y+3524565D02*
X+3525434Y+3624565D01*
X+3525434Y+3624566D01*
X+3824566Y+3725434D02*
X+3700000Y+3850000D01*
X+3650000Y+3850000D01*
X+3600000Y+3850000D01*
X+3558076Y+3808076D01*
X+3975434Y+3574566D02*
X+4075434Y+3674566D01*
X+3425434Y+3524565D02*
X+3400000Y+3499131D01*
X+3400000Y+3350000D01*
X+3400000Y+3300000D01*
X+3461355Y+3238645D01*
X+3875434Y+3474566D02*
X+3975434Y+3574566D01*
X+3741924Y+3991924D02*
X+3850000Y+4100000D01*
X+3850000Y+4200000D01*
X+4300000Y+4650000D01*
X+4500000Y+4650000D01*
X+4650000Y+4650000D01*
X+4682843Y+4682843D01*
X+3674749Y+4059099D02*
X+3750000Y+4134350D01*
X+3750000Y+4250000D01*
X+4250000Y+4750000D01*
X+4615686Y+4750000D01*
X+4682843Y+4682843D01*
X+3624566Y+3525434D02*
X+3700000Y+3450000D01*
X+3650000Y+3400000D01*
X+3600000Y+3400000D01*
X+3550000Y+3400000D01*
X+3524566Y+3425434D01*
X+3724566Y+3625434D02*
X+3800000Y+3550000D01*
X+4117157Y+4117157D02*
X+4117157Y+3867157D01*
X+4050000Y+3800000D01*
X+3800000Y+3550000D01*
X+3700000Y+3450000D01*
X+3238645Y+3461355D02*
X+3300000Y+3522710D01*
X+3300000Y+3522711D01*
X+3558076Y+3808076D02*
X+3300000Y+3550000D01*
X+3300000Y+3522710D01*
X+3300000Y+3522711D01*
X+3238645Y+3461355D01*
X+3238645Y+3461356D01*
X+3525434Y+3624566D02*
X+3425434Y+3524565D01*
X+3425434Y+3524566D01*
X+3775434Y+3374566D02*
X+3875434Y+3474566D01*
X+3809099Y+3924749D02*
X+3825251Y+3924749D01*
X+3825252Y+3924748D01*
X+3809099Y+3924748D02*
X+3809099Y+3924749D01*
X+3825251Y+3924749D01*
X+3825252Y+3924748D01*
X+3924566Y+3825434D01*
X-3875251Y+3490901D02*
X-3827665Y+3443315D01*
X-3827665Y+3432678D01*
X-3827665Y+3426797D01*
X-3775434Y+3374566D01*
X-3675434Y+3274566D02*
X-3775434Y+3374566D01*
X-3524565Y+3425434D02*
X-3624565Y+3525434D01*
X-3624566Y+3525434D01*
X-3725434Y+3824566D02*
X-3850000Y+3700000D01*
X-3850000Y+3650000D01*
X-3850000Y+3600000D01*
X-3808076Y+3558076D01*
X-3574566Y+3975434D02*
X-3674566Y+4075434D01*
X-3524565Y+3425434D02*
X-3499131Y+3400000D01*
X-3350000Y+3400000D01*
X-3300000Y+3400000D01*
X-3238645Y+3461355D01*
X-3474566Y+3875434D02*
X-3574566Y+3975434D01*
X-3991924Y+3741924D02*
X-4100000Y+3850000D01*
X-4200000Y+3850000D01*
X-4650000Y+4300000D01*
X-4650000Y+4500000D01*
X-4650000Y+4650000D01*
X-4682843Y+4682843D01*
X-4059099Y+3674749D02*
X-4134350Y+3750000D01*
X-4250000Y+3750000D01*
X-4750000Y+4250000D01*
X-4750000Y+4615686D01*
X-4682843Y+4682843D01*
X-3525434Y+3624566D02*
X-3450000Y+3700000D01*
X-3400000Y+3650000D01*
X-3400000Y+3600000D01*
X-3400000Y+3550000D01*
X-3425434Y+3524566D01*
X-3625434Y+3724566D02*
X-3550000Y+3800000D01*
X-4117157Y+4117157D02*
X-3867157Y+4117157D01*
X-3800000Y+4050000D01*
X-3550000Y+3800000D01*
X-3450000Y+3700000D01*
X-3461355Y+3238645D02*
X-3522710Y+3300000D01*
X-3522711Y+3300000D01*
X-3808076Y+3558076D02*
X-3550000Y+3300000D01*
X-3522710Y+3300000D01*
X-3522711Y+3300000D01*
X-3461355Y+3238645D01*
X-3461356Y+3238645D01*
X-3624566Y+3525434D02*
X-3524565Y+3425434D01*
X-3524566Y+3425434D01*
X-3374566Y+3775434D02*
X-3474566Y+3875434D01*
X-3924749Y+3809099D02*
X-3924749Y+3825251D01*
X-3924748Y+3825252D01*
X-3924748Y+3809099D02*
X-3924749Y+3809099D01*
X-3924749Y+3825251D01*
X-3924748Y+3825252D01*
X-3825434Y+3924566D01*
X-3274566Y+3675434D02*
X-3050000Y+3450868D01*
X-3050000Y+3450000D01*
X-3050000Y+3350000D01*
X-3110197Y+3289803D01*
X-3675434Y-3274566D02*
X-3450868Y-3050000D01*
X-3350000Y-3050000D01*
X-3289802Y-3110198D01*
X+3274566Y-3675434D02*
X+3050000Y-3450868D01*
X+3050000Y-3350000D01*
X+3110197Y-3289803D01*
X+3675434Y+3274566D02*
X+3450868Y+3050000D01*
X+3350000Y+3050000D01*
X+3289803Y+3110197D01*
X+3289802Y+3110197D01*
D11*
X-700000Y-3227000D02*
X-563974Y-3227000D01*
X-528269Y-3262705D01*
X-508274Y-3282700D01*
X-350000Y-3282700D01*
X+700000Y-3227000D02*
X+559153Y-3227000D01*
X+525659Y-3260494D01*
X+503453Y-3282700D01*
X+350000Y-3282700D01*
X-350000Y-3282700D02*
X-100000Y-3282700D01*
X+100000Y-3282700D01*
X+350000Y-3282700D01*
X-350000Y-3282700D02*
X-350000Y-3112700D01*
X-250000Y-3012700D01*
X+350000Y-3282700D02*
X+350000Y-3112700D01*
X+250000Y-3012700D01*
X-500000Y-2342520D02*
X-500000Y-2157480D01*
X-300000Y-2157480D02*
X-300000Y-2342520D01*
X-300000Y-1842520D02*
X-500000Y-1842520D01*
X-300000Y-1842520D02*
X-100000Y-1842520D01*
X+100000Y-1893320D02*
X+49200Y-1842520D01*
X-100000Y-1842520D01*
X+100000Y-2106680D02*
X+49200Y-2157480D01*
X-100000Y-2157480D01*
X-700000Y-2973000D02*
X-500000Y-2773000D01*
X-500000Y-2657480D01*
X-300000Y-2657480D02*
X-300000Y-2770436D01*
X-149050Y-2921386D01*
X-148939Y-2921840D01*
D12*
X-130000Y-3000000D01*
D11*
X-100000Y-2157480D02*
X-100000Y-2500000D01*
X+200000Y-2800000D01*
X+250000Y-2850000D01*
X+250000Y-3012700D01*
X+400000Y-1820000D02*
X+280000Y-1820000D01*
X+206680Y-1893320D01*
X+100000Y-1893320D01*
X+400000Y-2180000D02*
X+280000Y-2180000D01*
X+206680Y-2106680D01*
X+100000Y-2106680D01*
X+593980Y-2383160D02*
X+593980Y-1879299D01*
X+543210Y-1828529D01*
X+534681Y-1820000D01*
X+400000Y-1820000D01*
X+593980Y-2621920D02*
X+593980Y-2693980D01*
X+700000Y-2800000D01*
X+700000Y-2973000D01*
D13*
X-3775434Y-3374566D03*
X-4075434Y-3674566D03*
X-3525434Y-3624566D03*
X-3425434Y-3524565D03*
X-3975434Y-3574566D03*
X-3461355Y-3238645D03*
X-3875434Y-3474566D03*
X+3374566Y-3775434D03*
X+3674566Y-4075434D03*
X+3624566Y-3525434D03*
X+3524565Y-3425434D03*
X+3574566Y-3975434D03*
X+3238645Y-3461355D03*
X+3474566Y-3875434D03*
X+3775434Y+3374566D03*
X+4075434Y+3674566D03*
X+3525434Y+3624566D03*
X+3425434Y+3524565D03*
X+3975434Y+3574566D03*
X+3461355Y+3238645D03*
X+3875434Y+3474566D03*
X-3374566Y+3775434D03*
X-3674566Y+4075434D03*
X-3624566Y+3525434D03*
X-3524565Y+3425434D03*
X-3574566Y+3975434D03*
X-3238645Y+3461355D03*
X-3474566Y+3875434D03*
D14*
X-4682843Y-4682843D03*
X-4117157Y-4117157D03*
D15*
X-3775434Y-3374566D03*
X-3624566Y-3525434D03*
D16*
X-3809099Y-3924749D03*
X-3741924Y-3991924D03*
X-3674749Y-4059099D03*
X-3490901Y-3875251D03*
X-3558076Y-3808076D03*
X-3625251Y-3740901D03*
D15*
X-3724566Y-3625434D03*
X-3875434Y-3474566D03*
X-3524566Y-3425434D03*
X-3675434Y-3274566D03*
X-3924566Y-3825434D03*
X-4075434Y-3674566D03*
D17*
X-3461355Y-3238645D03*
X-3238645Y-3461355D03*
D15*
X-3824566Y-3725434D03*
X-3975434Y-3574566D03*
X-3374566Y-3775434D03*
X-3525434Y-3624566D03*
X-3274566Y-3675434D03*
X-3425434Y-3524566D03*
D14*
X+4682843Y-4682843D03*
X+4117157Y-4117157D03*
D18*
X+3374566Y-3775434D03*
X+3525434Y-3624566D03*
D19*
X+3924749Y-3809099D03*
X+3991924Y-3741924D03*
X+4059099Y-3674749D03*
X+3875251Y-3490901D03*
X+3808076Y-3558076D03*
X+3740901Y-3625251D03*
D18*
X+3625434Y-3724566D03*
X+3474566Y-3875434D03*
X+3425434Y-3524566D03*
X+3274566Y-3675434D03*
X+3825434Y-3924566D03*
X+3674566Y-4075434D03*
D70*
X+3238645Y-3461355D03*
X+3461355Y-3238645D03*
D18*
X+3725434Y-3824566D03*
X+3574566Y-3975434D03*
X+3775434Y-3374566D03*
X+3624566Y-3525434D03*
X+3675434Y-3274566D03*
X+3524566Y-3425434D03*
D14*
X+4682843Y+4682843D03*
X+4117157Y+4117157D03*
D15*
X+3775434Y+3374566D03*
X+3624566Y+3525434D03*
D16*
X+3809099Y+3924749D03*
X+3741924Y+3991924D03*
X+3674749Y+4059099D03*
X+3490901Y+3875251D03*
X+3558076Y+3808076D03*
X+3625251Y+3740901D03*
D15*
X+3724566Y+3625434D03*
X+3875434Y+3474566D03*
X+3524566Y+3425434D03*
X+3675434Y+3274566D03*
X+3924566Y+3825434D03*
X+4075434Y+3674566D03*
D17*
X+3461355Y+3238645D03*
X+3238645Y+3461355D03*
D15*
X+3824566Y+3725434D03*
X+3975434Y+3574566D03*
X+3374566Y+3775434D03*
X+3525434Y+3624566D03*
X+3274566Y+3675434D03*
X+3425434Y+3524566D03*
D14*
X-4682843Y+4682843D03*
X-4117157Y+4117157D03*
D18*
X-3374566Y+3775434D03*
X-3525434Y+3624566D03*
D19*
X-3924749Y+3809099D03*
X-3991924Y+3741924D03*
X-4059099Y+3674749D03*
X-3875251Y+3490901D03*
X-3808076Y+3558076D03*
X-3740901Y+3625251D03*
D18*
X-3625434Y+3724566D03*
X-3474566Y+3875434D03*
X-3425434Y+3524566D03*
X-3274566Y+3675434D03*
X-3825434Y+3924566D03*
X-3674566Y+4075434D03*
D70*
X-3238645Y+3461355D03*
X-3461355Y+3238645D03*
D18*
X-3725434Y+3824566D03*
X-3574566Y+3975434D03*
X-3775434Y+3374566D03*
X-3624566Y+3525434D03*
X-3675434Y+3274566D03*
X-3524566Y+3425434D03*
D71*
X-750000Y+2750000D03*
X-750000Y+3750000D03*
X+750000Y+3750000D03*
X+750000Y+2750000D03*
X-750000Y+4750000D03*
X+750000Y+4750000D03*
D20*
X+3110197Y-3289803D03*
D21*
X+3289802Y-3110197D03*
D20*
X+3289802Y+3110197D03*
D21*
X+3110197Y+3289802D03*
D20*
X-3289802Y-3110198D03*
D21*
X-3110197Y-3289803D03*
D20*
X-3110197Y+3289803D03*
D21*
X-3289803Y+3110197D03*
D22*
X-130000Y-3000000D03*
X-65000Y-3000000D03*
X+0Y-3000000D03*
X+65000Y-3000000D03*
X+130000Y-3000000D03*
D23*
X-250000Y-3012700D03*
X+250000Y-3012700D03*
D24*
X-350000Y-3282700D03*
X+350000Y-3282700D03*
D25*
X-100000Y-3282700D03*
X+100000Y-3282700D03*
D26*
X-300000Y-2657480D03*
X-300000Y-2342520D03*
X-300000Y-2157480D03*
X-300000Y-1842520D03*
X-500000Y-2157480D03*
X-500000Y-1842520D03*
X-500000Y-2342520D03*
X-500000Y-2657480D03*
D27*
X+700000Y-2973000D03*
D21*
X+700000Y-3227000D03*
D27*
X-700000Y-2973000D03*
D21*
X-700000Y-3227000D03*
D26*
X-100000Y-2157480D03*
X-100000Y-1842520D03*
D28*
X+100000Y-1893320D03*
X+100000Y-2106680D03*
D29*
X+400000Y-1820000D03*
X+400000Y-2180000D03*
D72*
X+403480Y-2621920D03*
X+497460Y-2621920D03*
X+593980Y-2621920D03*
X+593980Y-2383160D03*
X+403480Y-2383160D03*
D27*
X+603000Y-1052000D03*
D21*
X+603000Y-1306000D03*
X+349000Y-1052000D03*
X+349000Y-1306000D03*
X+95000Y-1052000D03*
X+95000Y-1306000D03*
X-159000Y-1052000D03*
X-159000Y-1306000D03*
D73*
X-4000000Y-5000000D02*
X-4500000Y-5000000D01*
X-4551964Y-4997475D01*
X-4602234Y-4990051D01*
X-4650581Y-4977959D01*
X-4696777Y-4961426D01*
X-4740593Y-4940681D01*
X-4781799Y-4915955D01*
X-4820168Y-4887474D01*
X-4855469Y-4855469D01*
X-4887474Y-4820168D01*
X-4915955Y-4781799D01*
X-4940682Y-4740593D01*
X-4961426Y-4696777D01*
X-4977959Y-4650581D01*
X-4990051Y-4602234D01*
X-4997475Y-4551964D01*
X-5000000Y-4500000D01*
X-5000000Y-4000000D01*
X-1750000Y-250000D01*
X-1750000Y+250000D01*
X-5000000Y+4000000D01*
X-5000000Y+4500000D01*
X-4997475Y+4551964D01*
X-4990051Y+4602234D01*
X-4977959Y+4650581D01*
X-4961426Y+4696777D01*
X-4940682Y+4740593D01*
X-4915955Y+4781799D01*
X-4887474Y+4820168D01*
X-4855469Y+4855469D01*
X-4820168Y+4887474D01*
X-4781799Y+4915955D01*
X-4740593Y+4940681D01*
X-4696777Y+4961426D01*
X-4650581Y+4977959D01*
X-4602234Y+4990051D01*
X-4551964Y+4997475D01*
X-4500000Y+5000000D01*
X-4000000Y+5000000D01*
X-1750000Y+3500000D01*
X-1000000Y+3500000D01*
X-1000000Y+4750000D01*
X-750000Y+5000000D01*
X+750000Y+5000000D01*
X+1000000Y+4750000D01*
X+1000000Y+3500000D01*
X+1750000Y+3500000D01*
X+4000000Y+5000000D01*
X+4500000Y+5000000D01*
X+4551964Y+4997475D01*
X+4602234Y+4990051D01*
X+4650581Y+4977959D01*
X+4696777Y+4961426D01*
X+4740593Y+4940681D01*
X+4781799Y+4915955D01*
X+4820168Y+4887474D01*
X+4855469Y+4855469D01*
X+4887474Y+4820168D01*
X+4915955Y+4781799D01*
X+4940682Y+4740593D01*
X+4961426Y+4696777D01*
X+4977959Y+4650581D01*
X+4990051Y+4602234D01*
X+4997475Y+4551964D01*
X+5000000Y+4500000D01*
X+5000000Y+4000000D01*
X+1750000Y+250000D01*
X+1750000Y-250000D01*
X+5000000Y-4000000D01*
X+5000000Y-4500000D01*
X+4997475Y-4551964D01*
X+4990051Y-4602234D01*
X+4977959Y-4650581D01*
X+4961426Y-4696777D01*
X+4940682Y-4740593D01*
X+4915955Y-4781799D01*
X+4887474Y-4820168D01*
X+4855469Y-4855469D01*
X+4820168Y-4887474D01*
X+4781799Y-4915955D01*
X+4740593Y-4940681D01*
X+4696777Y-4961426D01*
X+4650581Y-4977959D01*
X+4602234Y-4990051D01*
X+4551964Y-4997475D01*
X+4500000Y-5000000D01*
X+4000000Y-5000000D01*
X+1750000Y-3500000D01*
X-1750000Y-3500000D01*
X-4000000Y-5000000D01*
X-3250000Y-2750000D02*
X-2500000Y-3500000D01*
X-1750000Y-3000000D01*
X-1000000Y-3000000D01*
X-1000000Y-750000D01*
X-1500000Y-750000D01*
X-3250000Y-2750000D01*
X+3250000Y-2750000D02*
X+2500000Y-3500000D01*
X+1750000Y-3000000D01*
X+1000000Y-3000000D01*
X+1000000Y-750000D01*
X+1500000Y-750000D01*
X+3250000Y-2750000D01*
X+3250000Y+2750000D02*
X+2500000Y+3500000D01*
X+1750000Y+3000000D01*
X+1000000Y+3000000D01*
X+1000000Y+750000D01*
X+1500000Y+750000D01*
X+3250000Y+2750000D01*
X-3250000Y+2750000D02*
X-2500000Y+3500000D01*
X-1750000Y+3000000D01*
X-1000000Y+3000000D01*
X-1000000Y+750000D01*
X-1500000Y+750000D01*
X-3250000Y+2750000D01*
M02*
