G04 PROTEUS RS274X GERBER FILE*
%FSLAX45Y45*%
%MOMM*%
G01*
%ADD35C,1.016000*%
%ADD36C,3.302000*%
%AMPPAD051*
4,1,36,
-0.889000,0.444500,
-0.889000,-0.444500,
-0.886470,-0.470470,
-0.879200,-0.494480,
-0.867650,-0.516080,
-0.852290,-0.534790,
-0.833570,-0.550150,
-0.811980,-0.561700,
-0.787970,-0.568970,
-0.762000,-0.571500,
0.762000,-0.571500,
0.787970,-0.568970,
0.811980,-0.561700,
0.833570,-0.550150,
0.852290,-0.534790,
0.867650,-0.516080,
0.879200,-0.494480,
0.886470,-0.470470,
0.889000,-0.444500,
0.889000,0.444500,
0.886470,0.470470,
0.879200,0.494480,
0.867650,0.516080,
0.852290,0.534790,
0.833570,0.550150,
0.811980,0.561700,
0.787970,0.568970,
0.762000,0.571500,
-0.762000,0.571500,
-0.787970,0.568970,
-0.811980,0.561700,
-0.833570,0.550150,
-0.852290,0.534790,
-0.867650,0.516080,
-0.879200,0.494480,
-0.886470,0.470470,
-0.889000,0.444500,
0*%
%ADD57PPAD051*%
%AMPPAD052*
4,1,36,
-0.444500,-0.889000,
0.444500,-0.889000,
0.470470,-0.886470,
0.494480,-0.879200,
0.516080,-0.867650,
0.534790,-0.852290,
0.550150,-0.833570,
0.561700,-0.811980,
0.568970,-0.787970,
0.571500,-0.762000,
0.571500,0.762000,
0.568970,0.787970,
0.561700,0.811980,
0.550150,0.833570,
0.534790,0.852290,
0.516080,0.867650,
0.494480,0.879200,
0.470470,0.886470,
0.444500,0.889000,
-0.444500,0.889000,
-0.470470,0.886470,
-0.494480,0.879200,
-0.516080,0.867650,
-0.534790,0.852290,
-0.550150,0.833570,
-0.561700,0.811980,
-0.568970,0.787970,
-0.571500,0.762000,
-0.571500,-0.762000,
-0.568970,-0.787970,
-0.561700,-0.811980,
-0.550150,-0.833570,
-0.534790,-0.852290,
-0.516080,-0.867650,
-0.494480,-0.879200,
-0.470470,-0.886470,
-0.444500,-0.889000,
0*%
%ADD58PPAD052*%
%ADD43C,2.454000*%
%AMPPAD038*
4,1,36,
-1.167430,0.089800,
-0.089800,1.167430,
-0.069650,1.184010,
-0.047530,1.195840,
-0.024090,1.202950,
0.000000,1.205320,
0.024100,1.202940,
0.047530,1.195840,
0.069650,1.184010,
0.089800,1.167430,
1.167430,0.089800,
1.184010,0.069650,
1.195840,0.047530,
1.202940,0.024100,
1.205320,0.000000,
1.202950,-0.024090,
1.195840,-0.047530,
1.184010,-0.069650,
1.167430,-0.089800,
0.089800,-1.167430,
0.069650,-1.184010,
0.047530,-1.195840,
0.024090,-1.202950,
0.000000,-1.205320,
-0.024100,-1.202940,
-0.047530,-1.195840,
-0.069650,-1.184010,
-0.089800,-1.167430,
-1.167430,-0.089800,
-1.184010,-0.069650,
-1.195840,-0.047530,
-1.202940,-0.024100,
-1.205320,0.000000,
-1.202950,0.024090,
-1.195840,0.047530,
-1.184010,0.069650,
-1.167430,0.089800,
0*%
%ADD44PPAD038*%
%ADD45C,1.778000*%
%AMPPAD040*
4,1,36,
-0.089800,-1.167430,
-1.167430,-0.089800,
-1.184010,-0.069650,
-1.195840,-0.047530,
-1.202950,-0.024090,
-1.205320,0.000000,
-1.202940,0.024100,
-1.195840,0.047530,
-1.184010,0.069650,
-1.167430,0.089800,
-0.089800,1.167430,
-0.069650,1.184010,
-0.047530,1.195840,
-0.024100,1.202940,
0.000000,1.205320,
0.024090,1.202950,
0.047530,1.195840,
0.069650,1.184010,
0.089800,1.167430,
1.167430,0.089800,
1.184010,0.069650,
1.195840,0.047530,
1.202950,0.024090,
1.205320,0.000000,
1.202940,-0.024100,
1.195840,-0.047530,
1.184010,-0.069650,
1.167430,-0.089800,
0.089800,-1.167430,
0.069650,-1.184010,
0.047530,-1.195840,
0.024100,-1.202940,
0.000000,-1.205320,
-0.024090,-1.202950,
-0.047530,-1.195840,
-0.069650,-1.184010,
-0.089800,-1.167430,
0*%
%ADD46PPAD040*%
%ADD48C,1.704000*%
%ADD49C,2.154000*%
%AMPPAD046*
4,1,36,
-0.889000,0.762000,
-0.889000,-0.762000,
-0.886470,-0.787970,
-0.879200,-0.811980,
-0.867650,-0.833580,
-0.852290,-0.852290,
-0.833570,-0.867650,
-0.811980,-0.879200,
-0.787970,-0.886470,
-0.762000,-0.889000,
0.762000,-0.889000,
0.787970,-0.886470,
0.811980,-0.879200,
0.833570,-0.867650,
0.852290,-0.852290,
0.867650,-0.833580,
0.879200,-0.811980,
0.886470,-0.787970,
0.889000,-0.762000,
0.889000,0.762000,
0.886470,0.787970,
0.879200,0.811980,
0.867650,0.833580,
0.852290,0.852290,
0.833570,0.867650,
0.811980,0.879200,
0.787970,0.886470,
0.762000,0.889000,
-0.762000,0.889000,
-0.787970,0.886470,
-0.811980,0.879200,
-0.833570,0.867650,
-0.852290,0.852290,
-0.867650,0.833580,
-0.879200,0.811980,
-0.886470,0.787970,
-0.889000,0.762000,
0*%
%ADD52PPAD046*%
%AMPPAD050*
4,1,36,
0.889000,0.762000,
0.889000,-0.762000,
0.886470,-0.787970,
0.879200,-0.811980,
0.867650,-0.833580,
0.852290,-0.852290,
0.833570,-0.867650,
0.811980,-0.879200,
0.787970,-0.886470,
0.762000,-0.889000,
-0.762000,-0.889000,
-0.787970,-0.886470,
-0.811980,-0.879200,
-0.833570,-0.867650,
-0.852290,-0.852290,
-0.867650,-0.833580,
-0.879200,-0.811980,
-0.886470,-0.787970,
-0.889000,-0.762000,
-0.889000,0.762000,
-0.886470,0.787970,
-0.879200,0.811980,
-0.867650,0.833580,
-0.852290,0.852290,
-0.833570,0.867650,
-0.811980,0.879200,
-0.787970,0.886470,
-0.762000,0.889000,
0.762000,0.889000,
0.787970,0.886470,
0.811980,0.879200,
0.833570,0.867650,
0.852290,0.852290,
0.867650,0.833580,
0.879200,0.811980,
0.886470,0.787970,
0.889000,0.762000,
0*%
%ADD56PPAD050*%
%ADD73C,0.203200*%
D35*
X-3775434Y-3374566D03*
X-4075434Y-3674566D03*
X-3525434Y-3624566D03*
X-3425434Y-3524565D03*
X-3975434Y-3574566D03*
X-3461355Y-3238645D03*
X-3875434Y-3474566D03*
X+3374566Y-3775434D03*
X+3674566Y-4075434D03*
X+3624566Y-3525434D03*
X+3524565Y-3425434D03*
X+3574566Y-3975434D03*
X+3238645Y-3461355D03*
X+3474566Y-3875434D03*
X+3775434Y+3374566D03*
X+4075434Y+3674566D03*
X+3525434Y+3624566D03*
X+3425434Y+3524565D03*
X+3975434Y+3574566D03*
X+3461355Y+3238645D03*
X+3875434Y+3474566D03*
X-3374566Y+3775434D03*
X-3674566Y+4075434D03*
X-3624566Y+3525434D03*
X-3524565Y+3425434D03*
X-3574566Y+3975434D03*
X-3238645Y+3461355D03*
X-3474566Y+3875434D03*
D36*
X-4682843Y-4682843D03*
X-4117157Y-4117157D03*
D57*
X-4400000Y-4240000D03*
X-4400000Y-4560000D03*
D36*
X+4682843Y-4682843D03*
X+4117157Y-4117157D03*
D58*
X+4240000Y-4400000D03*
X+4560000Y-4400000D03*
D36*
X+4682843Y+4682843D03*
X+4117157Y+4117157D03*
D57*
X+4400000Y+4240000D03*
X+4400000Y+4560000D03*
D36*
X-4682843Y+4682843D03*
X-4117157Y+4117157D03*
D58*
X-4240000Y+4400000D03*
X-4560000Y+4400000D03*
D43*
X-750000Y+2750000D03*
X-750000Y+3750000D03*
X+750000Y+3750000D03*
X+750000Y+2750000D03*
X-750000Y+4750000D03*
X+750000Y+4750000D03*
D44*
X+3110197Y-3289803D03*
D45*
X+3289802Y-3110197D03*
D46*
X+3289802Y+3110197D03*
D45*
X+3110197Y+3289802D03*
D46*
X-3289802Y-3110198D03*
D45*
X-3110197Y-3289803D03*
D44*
X-3110197Y+3289803D03*
D45*
X-3289803Y+3110197D03*
D48*
X-250000Y-3012700D03*
X+250000Y-3012700D03*
D49*
X-350000Y-3282700D03*
X+350000Y-3282700D03*
D52*
X+700000Y-2973000D03*
D45*
X+700000Y-3227000D03*
D52*
X-700000Y-2973000D03*
D45*
X-700000Y-3227000D03*
D56*
X+603000Y-1052000D03*
D45*
X+603000Y-1306000D03*
X+349000Y-1052000D03*
X+349000Y-1306000D03*
X+95000Y-1052000D03*
X+95000Y-1306000D03*
X-159000Y-1052000D03*
X-159000Y-1306000D03*
D73*
X-4000000Y-5000000D02*
X-4500000Y-5000000D01*
X-4551964Y-4997475D01*
X-4602234Y-4990051D01*
X-4650581Y-4977959D01*
X-4696777Y-4961426D01*
X-4740593Y-4940681D01*
X-4781799Y-4915955D01*
X-4820168Y-4887474D01*
X-4855469Y-4855469D01*
X-4887474Y-4820168D01*
X-4915955Y-4781799D01*
X-4940682Y-4740593D01*
X-4961426Y-4696777D01*
X-4977959Y-4650581D01*
X-4990051Y-4602234D01*
X-4997475Y-4551964D01*
X-5000000Y-4500000D01*
X-5000000Y-4000000D01*
X-1750000Y-250000D01*
X-1750000Y+250000D01*
X-5000000Y+4000000D01*
X-5000000Y+4500000D01*
X-4997475Y+4551964D01*
X-4990051Y+4602234D01*
X-4977959Y+4650581D01*
X-4961426Y+4696777D01*
X-4940682Y+4740593D01*
X-4915955Y+4781799D01*
X-4887474Y+4820168D01*
X-4855469Y+4855469D01*
X-4820168Y+4887474D01*
X-4781799Y+4915955D01*
X-4740593Y+4940681D01*
X-4696777Y+4961426D01*
X-4650581Y+4977959D01*
X-4602234Y+4990051D01*
X-4551964Y+4997475D01*
X-4500000Y+5000000D01*
X-4000000Y+5000000D01*
X-1750000Y+3500000D01*
X-1000000Y+3500000D01*
X-1000000Y+4750000D01*
X-750000Y+5000000D01*
X+750000Y+5000000D01*
X+1000000Y+4750000D01*
X+1000000Y+3500000D01*
X+1750000Y+3500000D01*
X+4000000Y+5000000D01*
X+4500000Y+5000000D01*
X+4551964Y+4997475D01*
X+4602234Y+4990051D01*
X+4650581Y+4977959D01*
X+4696777Y+4961426D01*
X+4740593Y+4940681D01*
X+4781799Y+4915955D01*
X+4820168Y+4887474D01*
X+4855469Y+4855469D01*
X+4887474Y+4820168D01*
X+4915955Y+4781799D01*
X+4940682Y+4740593D01*
X+4961426Y+4696777D01*
X+4977959Y+4650581D01*
X+4990051Y+4602234D01*
X+4997475Y+4551964D01*
X+5000000Y+4500000D01*
X+5000000Y+4000000D01*
X+1750000Y+250000D01*
X+1750000Y-250000D01*
X+5000000Y-4000000D01*
X+5000000Y-4500000D01*
X+4997475Y-4551964D01*
X+4990051Y-4602234D01*
X+4977959Y-4650581D01*
X+4961426Y-4696777D01*
X+4940682Y-4740593D01*
X+4915955Y-4781799D01*
X+4887474Y-4820168D01*
X+4855469Y-4855469D01*
X+4820168Y-4887474D01*
X+4781799Y-4915955D01*
X+4740593Y-4940681D01*
X+4696777Y-4961426D01*
X+4650581Y-4977959D01*
X+4602234Y-4990051D01*
X+4551964Y-4997475D01*
X+4500000Y-5000000D01*
X+4000000Y-5000000D01*
X+1750000Y-3500000D01*
X-1750000Y-3500000D01*
X-4000000Y-5000000D01*
X-3250000Y-2750000D02*
X-2500000Y-3500000D01*
X-1750000Y-3000000D01*
X-1000000Y-3000000D01*
X-1000000Y-750000D01*
X-1500000Y-750000D01*
X-3250000Y-2750000D01*
X+3250000Y-2750000D02*
X+2500000Y-3500000D01*
X+1750000Y-3000000D01*
X+1000000Y-3000000D01*
X+1000000Y-750000D01*
X+1500000Y-750000D01*
X+3250000Y-2750000D01*
X+3250000Y+2750000D02*
X+2500000Y+3500000D01*
X+1750000Y+3000000D01*
X+1000000Y+3000000D01*
X+1000000Y+750000D01*
X+1500000Y+750000D01*
X+3250000Y+2750000D01*
X-3250000Y+2750000D02*
X-2500000Y+3500000D01*
X-1750000Y+3000000D01*
X-1000000Y+3000000D01*
X-1000000Y+750000D01*
X-1500000Y+750000D01*
X-3250000Y+2750000D01*
M02*
