G04 PROTEUS RS274X GERBER FILE*
%FSLAX45Y45*%
%MOMM*%
G01*
%ADD73C,0.203200*%
D73*
X-4000000Y-5000000D02*
X-4500000Y-5000000D01*
X-4551964Y-4997475D01*
X-4602234Y-4990051D01*
X-4650581Y-4977959D01*
X-4696777Y-4961426D01*
X-4740593Y-4940681D01*
X-4781799Y-4915955D01*
X-4820168Y-4887474D01*
X-4855469Y-4855469D01*
X-4887474Y-4820168D01*
X-4915955Y-4781799D01*
X-4940682Y-4740593D01*
X-4961426Y-4696777D01*
X-4977959Y-4650581D01*
X-4990051Y-4602234D01*
X-4997475Y-4551964D01*
X-5000000Y-4500000D01*
X-5000000Y-4000000D01*
X-1750000Y-250000D01*
X-1750000Y+250000D01*
X-5000000Y+4000000D01*
X-5000000Y+4500000D01*
X-4997475Y+4551964D01*
X-4990051Y+4602234D01*
X-4977959Y+4650581D01*
X-4961426Y+4696777D01*
X-4940682Y+4740593D01*
X-4915955Y+4781799D01*
X-4887474Y+4820168D01*
X-4855469Y+4855469D01*
X-4820168Y+4887474D01*
X-4781799Y+4915955D01*
X-4740593Y+4940681D01*
X-4696777Y+4961426D01*
X-4650581Y+4977959D01*
X-4602234Y+4990051D01*
X-4551964Y+4997475D01*
X-4500000Y+5000000D01*
X-4000000Y+5000000D01*
X-1750000Y+3500000D01*
X-1000000Y+3500000D01*
X-1000000Y+4750000D01*
X-750000Y+5000000D01*
X+750000Y+5000000D01*
X+1000000Y+4750000D01*
X+1000000Y+3500000D01*
X+1750000Y+3500000D01*
X+4000000Y+5000000D01*
X+4500000Y+5000000D01*
X+4551964Y+4997475D01*
X+4602234Y+4990051D01*
X+4650581Y+4977959D01*
X+4696777Y+4961426D01*
X+4740593Y+4940681D01*
X+4781799Y+4915955D01*
X+4820168Y+4887474D01*
X+4855469Y+4855469D01*
X+4887474Y+4820168D01*
X+4915955Y+4781799D01*
X+4940682Y+4740593D01*
X+4961426Y+4696777D01*
X+4977959Y+4650581D01*
X+4990051Y+4602234D01*
X+4997475Y+4551964D01*
X+5000000Y+4500000D01*
X+5000000Y+4000000D01*
X+1750000Y+250000D01*
X+1750000Y-250000D01*
X+5000000Y-4000000D01*
X+5000000Y-4500000D01*
X+4997475Y-4551964D01*
X+4990051Y-4602234D01*
X+4977959Y-4650581D01*
X+4961426Y-4696777D01*
X+4940682Y-4740593D01*
X+4915955Y-4781799D01*
X+4887474Y-4820168D01*
X+4855469Y-4855469D01*
X+4820168Y-4887474D01*
X+4781799Y-4915955D01*
X+4740593Y-4940681D01*
X+4696777Y-4961426D01*
X+4650581Y-4977959D01*
X+4602234Y-4990051D01*
X+4551964Y-4997475D01*
X+4500000Y-5000000D01*
X+4000000Y-5000000D01*
X+1750000Y-3500000D01*
X-1750000Y-3500000D01*
X-4000000Y-5000000D01*
X-3250000Y-2750000D02*
X-2500000Y-3500000D01*
X-1750000Y-3000000D01*
X-1000000Y-3000000D01*
X-1000000Y-750000D01*
X-1500000Y-750000D01*
X-3250000Y-2750000D01*
X+3250000Y-2750000D02*
X+2500000Y-3500000D01*
X+1750000Y-3000000D01*
X+1000000Y-3000000D01*
X+1000000Y-750000D01*
X+1500000Y-750000D01*
X+3250000Y-2750000D01*
X+3250000Y+2750000D02*
X+2500000Y+3500000D01*
X+1750000Y+3000000D01*
X+1000000Y+3000000D01*
X+1000000Y+750000D01*
X+1500000Y+750000D01*
X+3250000Y+2750000D01*
X-3250000Y+2750000D02*
X-2500000Y+3500000D01*
X-1750000Y+3000000D01*
X-1000000Y+3000000D01*
X-1000000Y+750000D01*
X-1500000Y+750000D01*
X-3250000Y+2750000D01*
M02*
